<svg xmlns="http://www.w3.org/2000/svg" xmlns:xlink="http://www.w3.org/1999/xlink" viewBox="0 0 40 40" version="1.1">
<g id="surface1">
<path style=" fill:#98CCFD;" d="M 15.609375 36.386719 L 10.539063 36.386719 L 8.003906 31.996094 L 3.613281 29.460938 L 3.613281 24.390625 L 1.078125 20 L 3.613281 15.609375 L 3.613281 10.539063 L 8.003906 8.003906 L 10.539063 3.613281 L 15.609375 3.613281 L 20 1.078125 L 24.390625 3.613281 L 29.460938 3.613281 L 31.996094 8.003906 L 36.386719 10.539063 L 36.386719 15.609375 L 38.921875 20 L 36.386719 24.390625 L 36.386719 29.460938 L 31.996094 31.996094 L 29.460938 36.386719 L 24.390625 36.386719 L 20 38.921875 Z "></path>
<path style=" fill:#4788C7;" d="M 20 1.65625 L 24.023438 3.980469 L 24.257813 4.113281 L 29.171875 4.113281 L 31.496094 8.136719 L 31.628906 8.371094 L 31.863281 8.503906 L 35.886719 10.828125 L 35.886719 15.742188 L 36.019531 15.976563 L 38.34375 20 L 36.019531 24.023438 L 35.886719 24.257813 L 35.886719 29.171875 L 31.863281 31.496094 L 31.628906 31.628906 L 31.496094 31.863281 L 29.171875 35.886719 L 24.257813 35.886719 L 24.023438 36.019531 L 20 38.34375 L 15.976563 36.019531 L 15.742188 35.886719 L 10.828125 35.886719 L 8.503906 31.863281 L 8.371094 31.628906 L 8.136719 31.496094 L 4.113281 29.171875 L 4.113281 24.257813 L 3.980469 24.023438 L 1.65625 20 L 3.980469 15.976563 L 4.113281 15.742188 L 4.113281 10.828125 L 8.136719 8.503906 L 8.371094 8.371094 L 8.503906 8.136719 L 10.828125 4.113281 L 15.742188 4.113281 L 15.976563 3.980469 L 20 1.65625 M 20 0.5 L 15.476563 3.113281 L 10.25 3.113281 L 7.636719 7.636719 L 3.113281 10.25 L 3.113281 15.476563 L 0.5 20 L 3.113281 24.523438 L 3.113281 29.75 L 7.636719 32.363281 L 10.25 36.886719 L 15.476563 36.886719 L 20 39.5 L 24.523438 36.886719 L 29.75 36.886719 L 32.363281 32.363281 L 36.886719 29.75 L 36.886719 24.527344 L 39.5 20 L 36.886719 15.476563 L 36.886719 10.25 L 32.363281 7.636719 L 29.75 3.113281 L 24.523438 3.113281 Z "></path>
<path style="fill:none;stroke-width:3;stroke-linecap:butt;stroke-linejoin:miter;stroke:#FFFFFF;stroke-opacity:1;stroke-miterlimit:10;" d="M 11.179688 20.050781 L 17.023438 25.898438 L 30.179688 12.746094 "></path>
</g>
</svg>