<svg xmlns="http://www.w3.org/2000/svg" xmlns:xlink="http://www.w3.org/1999/xlink" viewBox="0 0 40 40" version="1.1">
<g id="surface1">
<path style=" fill:#98CCFD;" d="M 22.5 7 C 22.5 10.589844 19.589844 13.5 16 13.5 C 12.410156 13.5 9.5 10.589844 9.5 7 C 9.5 3.410156 12.410156 0.5 16 0.5 C 19.589844 0.5 22.5 3.410156 22.5 7 Z "></path>
<path style=" fill:#4788C7;" d="M 16 1 C 19.308594 1 22 3.691406 22 7 C 22 10.308594 19.308594 13 16 13 C 12.691406 13 10 10.308594 10 7 C 10 3.691406 12.691406 1 16 1 M 16 0 C 12.132813 0 9 3.132813 9 7 C 9 10.867188 12.132813 14 16 14 C 19.867188 14 23 10.867188 23 7 C 23 3.132813 19.867188 0 16 0 Z "></path>
<path style=" fill:#DFF0FE;" d="M 19.929688 38.5 C 18.199219 38.5 16.574219 37.820313 15.355469 36.585938 L 14.984375 36.214844 L 14.980469 36.222656 L 5.378906 26.621094 C 4.8125 26.054688 4.5 25.300781 4.5 24.5 C 4.5 23.699219 4.8125 22.945313 5.378906 22.378906 C 5.945313 21.8125 6.699219 21.5 7.5 21.5 C 8.300781 21.5 9.054688 21.8125 9.621094 22.378906 L 13.5 26.257813 L 13.5 19.5 L 33.5 19.5 L 33.5 33 C 33.5 36.03125 31.03125 38.5 28 38.5 Z "></path>
<path style=" fill:#4788C7;" d="M 33 20 L 33 33 C 33 35.757813 30.757813 38 28 38 L 19.929688 38 C 18.332031 38 16.835938 37.375 15.710938 36.234375 L 15 35.523438 L 14.996094 35.527344 L 5.734375 26.265625 C 5.261719 25.796875 5 25.167969 5 24.5 C 5 23.832031 5.261719 23.203125 5.730469 22.730469 C 6.203125 22.261719 6.832031 22 7.5 22 C 8.167969 22 8.796875 22.261719 9.269531 22.730469 L 12.292969 25.757813 L 14 27.464844 L 14 20 L 33 20 M 34 19 L 13 19 L 13 25.050781 L 9.976563 22.023438 C 9.289063 21.34375 8.394531 21 7.5 21 C 6.605469 21 5.710938 21.34375 5.023438 22.023438 C 3.65625 23.390625 3.65625 25.609375 5.023438 26.976563 L 14.992188 36.945313 L 15 36.9375 C 16.257813 38.210938 18 39 19.929688 39 L 28 39 C 31.3125 39 34 36.3125 34 33 Z "></path>
<path style=" fill:#DFF0FE;" d="M 18.5 20.5 L 18.5 18 C 18.5 16.621094 19.621094 15.5 21 15.5 C 22.378906 15.5 23.5 16.621094 23.5 18 L 23.5 20.5 Z "></path>
<path style=" fill:#4788C7;" d="M 21 16 C 22.101563 16 23 16.898438 23 18 L 23 20 L 19 20 L 19 18 C 19 16.898438 19.898438 16 21 16 M 21 15 C 19.34375 15 18 16.34375 18 18 L 18 21 L 24 21 L 24 18 C 24 16.34375 22.65625 15 21 15 Z "></path>
<path style=" fill:#DFF0FE;" d="M 13.5 22.101563 L 13.5 7 C 13.5 5.621094 14.621094 4.5 16 4.5 C 17.378906 4.5 18.5 5.621094 18.5 7 L 18.5 22.101563 Z "></path>
<path style=" fill:#4788C7;" d="M 16 5 C 17.101563 5 18 5.898438 18 7 L 18 21.601563 L 14 21.601563 L 14 7 C 14 5.898438 14.898438 5 16 5 M 16 4 C 14.34375 4 13 5.34375 13 7 L 13 22.601563 L 19 22.601563 L 19 7 C 19 5.34375 17.65625 4 16 4 Z "></path>
<path style=" fill:#DFF0FE;" d="M 23.5 20.5 L 23.5 18 C 23.5 16.621094 24.621094 15.5 26 15.5 C 27.378906 15.5 28.5 16.621094 28.5 18 L 28.5 20.5 Z "></path>
<path style=" fill:#4788C7;" d="M 26 16 C 27.101563 16 28 16.898438 28 18 L 28 20 L 24 20 L 24 18 C 24 16.898438 24.898438 16 26 16 M 26 15 C 24.34375 15 23 16.34375 23 18 L 23 21 L 29 21 L 29 18 C 29 16.34375 27.65625 15 26 15 Z "></path>
<path style=" fill:#DFF0FE;" d="M 28.5 22.699219 L 28.5 19 C 28.5 17.621094 29.621094 16.5 31 16.5 C 32.378906 16.5 33.5 17.621094 33.5 19 L 33.5 22.699219 Z "></path>
<path style=" fill:#4788C7;" d="M 31 17 C 32.101563 17 33 17.898438 33 19 L 33 22.199219 L 29 22.199219 L 29 19 C 29 17.898438 29.898438 17 31 17 M 31 16 C 29.34375 16 28 17.34375 28 19 L 28 23.199219 L 34 23.199219 L 34 19 C 34 17.34375 32.65625 16 31 16 Z "></path>
<path style=" fill:#DFF0FE;" d="M 32 20 L 32 19 L 14 19 L 14 24 L 33 24 L 33 20 Z "></path>
</g>
</svg>