<svg xmlns="http://www.w3.org/2000/svg" xmlns:xlink="http://www.w3.org/1999/xlink" viewBox="0 0 40 40" version="1.1">
<g id="surface1">
<path style=" fill:#B6DCFE;" d="M 11 38.5 C 7.96875 38.5 5.5 36.03125 5.5 33 L 5.5 14.5 L 34.5 14.5 L 34.5 33 C 34.5 36.03125 32.03125 38.5 29 38.5 Z "></path>
<path style=" fill:#4788C7;" d="M 34 15 L 34 33 C 34 35.757813 31.757813 38 29 38 L 11 38 C 8.242188 38 6 35.757813 6 33 L 6 15 L 34 15 M 35 14 L 5 14 L 5 33 C 5 36.3125 7.6875 39 11 39 L 29 39 C 32.3125 39 35 36.3125 35 33 Z "></path>
<path style=" fill:#DFF0FE;" d="M 6 15 L 16 15 L 16 38 L 11 38 C 8.238281 38 6 35.761719 6 33 Z "></path>
<path style="fill:none;stroke-width:1;stroke-linecap:butt;stroke-linejoin:miter;stroke:#4788C7;stroke-opacity:1;stroke-miterlimit:10;" d="M 5.5 14.617188 L 5.5 11.5 C 5.5 5.976563 9.976563 1.5 15.5 1.5 L 24.5 1.5 C 30.023438 1.5 34.5 5.976563 34.5 11.5 L 34.5 14.617188 "></path>
<path style=" fill:#B6DCFE;" d="M 6 15.5 C 5.171875 15.5 4.5 14.828125 4.5 14 C 4.5 13.171875 5.171875 12.5 6 12.5 L 34 12.5 C 34.828125 12.5 35.5 13.171875 35.5 14 C 35.5 14.828125 34.828125 15.5 34 15.5 Z "></path>
<path style=" fill:#4788C7;" d="M 34 13 C 34.550781 13 35 13.449219 35 14 C 35 14.550781 34.550781 15 34 15 L 6 15 C 5.449219 15 5 14.550781 5 14 C 5 13.449219 5.449219 13 6 13 L 34 13 M 34 12 L 6 12 C 4.894531 12 4 12.894531 4 14 C 4 15.105469 4.894531 16 6 16 L 34 16 C 35.105469 16 36 15.105469 36 14 C 36 12.894531 35.105469 12 34 12 Z "></path>
<path style=" fill:#98CCFD;" d="M 24.5 30.5 C 24.429688 30.5 24.359375 30.496094 24.292969 30.488281 C 23.285156 30.386719 22.5 29.453125 22.5 28.355469 L 22.5 20.5 C 22.5 19.398438 21.601563 18.5 20.5 18.5 C 19.398438 18.5 18.5 19.398438 18.5 20.5 L 18.5 21 C 18.5 22.378906 17.378906 23.5 16 23.5 L 15.863281 23.496094 C 14.558594 23.429688 13.5 22.230469 13.5 20.828125 L 13.5 17 C 13.5 15.140625 12.574219 13.496094 11.160156 12.5 L 28.839844 12.5 C 27.425781 13.496094 26.5 15.140625 26.5 17 L 26.5 28.5 C 26.5 29.035156 26.292969 29.535156 25.914063 29.914063 C 25.535156 30.292969 25.035156 30.5 24.5 30.5 Z "></path>
<path style=" fill:#4788C7;" d="M 27.53125 13 C 26.578125 14.0625 26 15.464844 26 17 L 26 28.5 C 26 29.328125 25.328125 30 24.5 30 C 24.449219 30 24.394531 29.996094 24.34375 29.992188 C 23.589844 29.917969 23 29.199219 23 28.355469 L 23 20.5 C 23 19.121094 21.878906 18 20.5 18 C 19.121094 18 18 19.121094 18 20.5 L 18 21 C 18 22.101563 17.101563 23 16 23 C 15.964844 23 15.925781 23 15.890625 22.996094 C 14.847656 22.941406 14 21.96875 14 20.828125 L 14 17 C 14 15.464844 13.421875 14.0625 12.46875 13 L 27.53125 13 M 32 12 L 8 12 C 10.761719 12 13 14.238281 13 17 L 13 20.828125 C 13 22.453125 14.214844 23.910156 15.839844 23.996094 C 15.894531 24 15.945313 24 16 24 C 17.65625 24 19 22.65625 19 21 L 19 20.5 C 19 19.671875 19.671875 19 20.5 19 C 21.328125 19 22 19.671875 22 20.5 L 22 28.355469 C 22 29.664063 22.941406 30.855469 24.242188 30.988281 C 24.328125 30.996094 24.414063 31 24.5 31 C 25.882813 31 27 29.882813 27 28.5 L 27 17 C 27 14.238281 29.238281 12 32 12 Z "></path>
</g>
</svg>