<svg xmlns="http://www.w3.org/2000/svg" xmlns:xlink="http://www.w3.org/1999/xlink" viewBox="0 0 40 40" version="1.1">
<g id="surface1">
<path style=" fill:#B6DCFE;" d="M 35.5 38.5 C 33.753906 38.5 32.125 36.535156 30.550781 34.632813 C 28.863281 32.601563 27.125 30.5 25 30.5 L 15 30.5 C 12.871094 30.5 11.121094 32.605469 9.433594 34.644531 C 7.855469 36.539063 6.230469 38.5 4.5 38.5 C 1.921875 38.5 0.5 36.902344 0.5 34 C 0.5 27.742188 1.851563 11.5 8 11.5 C 10.210938 11.5 11.953125 11.847656 13.355469 12.128906 C 14.355469 12.328125 15.21875 12.5 16 12.5 L 24 12.5 C 24.78125 12.5 25.644531 12.328125 26.644531 12.128906 C 28.046875 11.847656 29.789063 11.5 32 11.5 C 33.007813 11.5 33.898438 11.902344 34.726563 12.730469 C 39.476563 17.488281 39.5 33.835938 39.5 34 C 39.5 36.902344 38.078125 38.5 35.5 38.5 Z "></path>
<path style=" fill:#4788C7;" d="M 32 12 C 32.867188 12 33.644531 12.355469 34.371094 13.082031 C 38.972656 17.691406 39 33.835938 39 34 C 39 36.652344 37.820313 38 35.5 38 C 33.988281 38 32.4375 36.125 30.933594 34.3125 C 29.175781 32.191406 27.359375 30 25 30 L 15 30 C 12.636719 30 10.8125 32.199219 9.046875 34.324219 C 7.546875 36.132813 5.996094 38 4.5 38 C 2.179688 38 1 36.652344 1 34 C 1 28.292969 2.289063 12 8 12 C 10.160156 12 11.878906 12.34375 13.257813 12.617188 C 14.285156 12.824219 15.171875 13 16 13 L 24 13 C 24.828125 13 25.714844 12.824219 26.742188 12.617188 C 28.121094 12.34375 29.839844 12 32 12 M 32 11 C 28.191406 11 25.796875 12 24 12 C 22.296875 12 21.011719 12 20 12 C 18.988281 12 17.703125 12 16 12 C 14.203125 12 11.808594 11 8 11 C 0 11 0 34 0 34 C 0 37.199219 1.644531 39 4.5 39 C 8.40625 39 11.191406 31 15 31 C 16.90625 31 18.285156 31 20 31 C 21.714844 31 23.09375 31 25 31 C 28.808594 31 31.566406 39 35.5 39 C 38.355469 39 40 37.199219 40 34 C 40 34 40.042969 11 32 11 Z "></path>
<path style="fill:none;stroke-width:1;stroke-linecap:round;stroke-linejoin:miter;stroke:#4788C7;stroke-opacity:1;stroke-miterlimit:10;" d="M 20.5 12 C 20.5 7.574219 22.582031 6.5 26.5 6.5 C 29.5 6.5 32.5 6.808594 32.5 1.5 "></path>
<path style=" fill:#FFFFFF;" d="M 34.617188 20.582031 C 35.125 21.089844 35.125 21.910156 34.617188 22.417969 L 29.417969 27.617188 C 28.910156 28.125 28.089844 28.125 27.582031 27.617188 L 22.378906 22.417969 C 21.871094 21.910156 21.871094 21.089844 22.378906 20.582031 L 27.582031 15.378906 C 28.089844 14.871094 28.910156 14.871094 29.417969 15.378906 Z "></path>
<path style=" fill:#4788C7;" d="M 30 18.5 C 30 19.328125 29.328125 20 28.5 20 C 27.671875 20 27 19.328125 27 18.5 C 27 17.671875 27.671875 17 28.5 17 C 29.328125 17 30 17.671875 30 18.5 Z "></path>
<path style=" fill:#4788C7;" d="M 30 24.5 C 30 25.328125 29.328125 26 28.5 26 C 27.671875 26 27 25.328125 27 24.5 C 27 23.671875 27.671875 23 28.5 23 C 29.328125 23 30 23.671875 30 24.5 Z "></path>
<path style=" fill:#4788C7;" d="M 33 21.5 C 33 22.328125 32.328125 23 31.5 23 C 30.671875 23 30 22.328125 30 21.5 C 30 20.671875 30.671875 20 31.5 20 C 32.328125 20 33 20.671875 33 21.5 Z "></path>
<path style=" fill:#4788C7;" d="M 27 21.5 C 27 22.328125 26.328125 23 25.5 23 C 24.671875 23 24 22.328125 24 21.5 C 24 20.671875 24.671875 20 25.5 20 C 26.328125 20 27 20.671875 27 21.5 Z "></path>
<path style=" fill:#4788C7;" d="M 10 16 L 13 16 L 13 19 L 10 19 Z "></path>
<path style=" fill:#4788C7;" d="M 14 20 L 17 20 L 17 23 L 14 23 Z "></path>
<path style=" fill:#4788C7;" d="M 6 20 L 9 20 L 9 23 L 6 23 Z "></path>
<path style=" fill:#4788C7;" d="M 10 24 L 13 24 L 13 27 L 10 27 Z "></path>
</g>
</svg>