<svg xmlns="http://www.w3.org/2000/svg" xmlns:xlink="http://www.w3.org/1999/xlink" viewBox="0 0 40 40" version="1.1">
<g id="surface1">
<path style="fill:none;stroke-width:1;stroke-linecap:butt;stroke-linejoin:miter;stroke:#4788C7;stroke-opacity:1;stroke-miterlimit:10;" d="M 16 36.5 L 22.667969 24.5 "></path>
<path style=" fill:#4788C7;" d="M 16 35 C 15.824219 35 16.175781 35 16 35 C 15.171875 35 14.5 35.671875 14.5 36.5 C 14.5 37.328125 15.171875 38 16 38 C 16.175781 38 15.824219 38 16 38 C 16.828125 38 17.5 37.328125 17.5 36.5 C 17.5 35.671875 16.828125 35 16 35 Z "></path>
<path style="fill:none;stroke-width:1;stroke-linecap:butt;stroke-linejoin:miter;stroke:#4788C7;stroke-opacity:1;stroke-miterlimit:10;" d="M 32 36.5 L 25.332031 24.5 "></path>
<path style=" fill:#4788C7;" d="M 32 35 C 32.175781 35 31.824219 35 32 35 C 32.828125 35 33.5 35.671875 33.5 36.5 C 33.5 37.328125 32.828125 38 32 38 C 31.824219 38 32.175781 38 32 38 C 31.171875 38 30.5 37.328125 30.5 36.5 C 30.5 35.671875 31.171875 35 32 35 Z "></path>
<path style=" fill:#4788C7;" d="M 24 33 C 23.449219 33 23 32.550781 23 32 L 23 5 C 23 4.449219 23.449219 4 24 4 C 24.550781 4 25 4.449219 25 5 L 25 32 C 25 32.550781 24.550781 33 24 33 Z "></path>
<path style=" fill:#DFF0FE;" d="M 9.5 8.5 L 38.5 8.5 L 38.5 28.5 L 9.5 28.5 Z "></path>
<path style=" fill:#4788C7;" d="M 38 9 L 38 28 L 10 28 L 10 9 L 38 9 M 39 8 L 9 8 L 9 29 L 39 29 Z "></path>
<path style=" fill:#B6DCFE;" d="M 8.5 5.5 L 39.5 5.5 L 39.5 8.5 L 8.5 8.5 Z "></path>
<path style=" fill:#4788C7;" d="M 39 6 L 39 8 L 9 8 L 9 6 L 39 6 M 40 5 L 8 5 L 8 9 L 40 9 Z "></path>
<path style=" fill:#B6DCFE;" d="M 8 9 L 9 9 L 9 29 L 11.835938 29 L 13.125 13.804688 L 10 13 L 10 10.398438 L 10.652344 10 C 12.070313 9.003906 13 7.359375 13 5.5 C 13 5.332031 12.988281 5.164063 12.976563 5 L 8 5 Z "></path>
<path style=" fill:#DFF0FE;" d="M 10 13 L 10 10.398438 L 10.652344 10 C 11.054688 9.71875 11.410156 9.378906 11.726563 9 L 9 9 L 9 29 L 11.835938 29 L 13.125 13.804688 Z "></path>
<path style=" fill:#DFF0FE;" d="M 11.5 5.5 C 11.5 7.710938 9.710938 9.5 7.5 9.5 C 5.289063 9.5 3.5 7.710938 3.5 5.5 C 3.5 3.289063 5.289063 1.5 7.5 1.5 C 9.710938 1.5 11.5 3.289063 11.5 5.5 Z "></path>
<path style=" fill:#4788C7;" d="M 7.5 2 C 9.429688 2 11 3.570313 11 5.5 C 11 7.429688 9.429688 9 7.5 9 C 5.570313 9 4 7.429688 4 5.5 C 4 3.570313 5.570313 2 7.5 2 M 7.5 1 C 5.015625 1 3 3.015625 3 5.5 C 3 7.984375 5.015625 10 7.5 10 C 9.984375 10 12 7.984375 12 5.5 C 12 3.015625 9.984375 1 7.5 1 Z "></path>
<path style=" fill:#98CCFD;" d="M 4.5 38.5 L 4.5 27.792969 L 1.5 24.792969 L 1.5 17 C 1.5 13.96875 3.96875 11.5 7 11.5 L 22 11.5 C 22.828125 11.5 23.5 12.171875 23.5 13 C 23.5 13.828125 22.828125 14.5 22 14.5 L 11.539063 14.5 L 9.539063 38.5 Z "></path>
<path style=" fill:#4788C7;" d="M 22 12 C 22.550781 12 23 12.449219 23 13 C 23 13.550781 22.550781 14 22 14 L 11.078125 14 L 11.003906 14.917969 L 9.078125 38 L 5 38 L 5 27.585938 L 2 24.585938 L 2 17 C 2 14.242188 4.242188 12 7 12 L 22 12 M 22 11 L 7 11 C 3.6875 11 1 13.6875 1 17 L 1 25 L 4 28 L 4 39 L 10 39 L 12 15 L 22 15 C 23.105469 15 24 14.105469 24 13 C 24 11.894531 23.105469 11 22 11 Z "></path>
</g>
</svg>