<svg xmlns="http://www.w3.org/2000/svg" viewBox="0 0 124 30"><title>mindless-logo</title><path d="M32.49,9.72V20.28H30.56V13.8c0-.14,0-.29,0-.44s0-.31,0-.47l-3,5.72a.79.79,0,0,1-.76.47h-.31a.84.84,0,0,1-.45-.12.82.82,0,0,1-.31-.35l-3-5.74,0,.49c0,.15,0,.3,0,.44v6.48H16L18.42,9.72h4.34a.58.58,0,0,1,.19,0,.49.49,0,0,1,.15.1,1,1,0,0,1,.14.19l3,5.63c.09.17.18.35.26.53s.15.36.23.55c.07-.19.14-.38.23-.57s.16-.36.25-.53l2.93-5.61a1,1,0,0,1,.14-.19.54.54,0,0,1,.16-.1.58.58,0,0,1,.19,0h1.91Z" fill="#fff"/><path d="M38.34,20.28H36.15V9.72h2.19Z" fill="#fff"/><path d="M51.05,9.72V20.28H49.92a.87.87,0,0,1-.42-.09,1,1,0,0,1-.35-.28l-5.26-6.7c0,.17,0,.34,0,.51s0,.31,0,.45v6.11H42V9.72H43.4l.17,0a.91.91,0,0,1,.16.11,1.36,1.36,0,0,1,.16.17l5.29,6.73c0-.19,0-.37,0-.54s0-.33,0-.49v-6Z" fill="#fff"/><path d="M64.18,15a5.59,5.59,0,0,1-.39,2.12,4.79,4.79,0,0,1-1.09,1.67A5.06,5.06,0,0,1,61,19.88a5.83,5.83,0,0,1-2.21.4H54.72V9.72h4.06a5.83,5.83,0,0,1,2.21.4,5.06,5.06,0,0,1,1.71,1.09,4.88,4.88,0,0,1,1.09,1.67A5.59,5.59,0,0,1,64.18,15Zm-2.24,0a4.58,4.58,0,0,0-.22-1.49,3,3,0,0,0-.62-1.12,2.57,2.57,0,0,0-1-.71,3.24,3.24,0,0,0-1.32-.25H56.92v7.14h1.86a3.24,3.24,0,0,0,1.32-.25,2.55,2.55,0,0,0,1-.7,3.08,3.08,0,0,0,.62-1.13A4.62,4.62,0,0,0,61.94,15Z" fill="#fff"/><path d="M73.51,18.5v1.78H67.24V9.72h2.19V18.5Z" fill="#fff"/><path d="M78.49,11.43v2.72H82V15.8H78.49v2.77H83v1.71H76.29V9.72H83v1.71Z" fill="#fff"/><path d="M91.82,11.74a.79.79,0,0,1-.21.25.45.45,0,0,1-.27.07A.62.62,0,0,1,91,12l-.43-.24a5.12,5.12,0,0,0-.57-.25,2.37,2.37,0,0,0-.75-.11,1.62,1.62,0,0,0-1.13.34,1.11,1.11,0,0,0-.38.88.85.85,0,0,0,.2.58,1.78,1.78,0,0,0,.55.4,5.63,5.63,0,0,0,.77.3l.88.28c.3.11.59.23.88.37a3.4,3.4,0,0,1,.77.53,2.72,2.72,0,0,1,.54.78,2.75,2.75,0,0,1,.21,1.13,3.56,3.56,0,0,1-.25,1.35,3.26,3.26,0,0,1-.73,1.1,3.33,3.33,0,0,1-1.16.73,4.36,4.36,0,0,1-1.58.27,4.85,4.85,0,0,1-1-.1,6.23,6.23,0,0,1-1-.28,5.07,5.07,0,0,1-.87-.44,3.7,3.7,0,0,1-.71-.57l.64-1a.55.55,0,0,1,.21-.19.57.57,0,0,1,.28-.08.72.72,0,0,1,.41.15l.5.32a5.09,5.09,0,0,0,.66.32,2.43,2.43,0,0,0,.9.14,1.75,1.75,0,0,0,1.18-.35,1.27,1.27,0,0,0,.42-1,1,1,0,0,0-.21-.64,1.63,1.63,0,0,0-.54-.42,4.46,4.46,0,0,0-.76-.29c-.29-.08-.58-.16-.88-.26a6.72,6.72,0,0,1-.88-.35,2.75,2.75,0,0,1-.77-.54,2.59,2.59,0,0,1-.54-.83,3.16,3.16,0,0,1-.21-1.23,3,3,0,0,1,.92-2.12,3.27,3.27,0,0,1,1.11-.69,4,4,0,0,1,1.51-.26A5,5,0,0,1,91,9.9a4,4,0,0,1,1.37.82Z" fill="#fff"/><path d="M101.29,11.74a.79.79,0,0,1-.21.25.45.45,0,0,1-.27.07.65.65,0,0,1-.35-.11l-.43-.24a5.12,5.12,0,0,0-.57-.25,2.37,2.37,0,0,0-.75-.11,1.62,1.62,0,0,0-1.13.34,1.11,1.11,0,0,0-.38.88.81.81,0,0,0,.21.58,1.62,1.62,0,0,0,.54.4,5.63,5.63,0,0,0,.77.3c.29.08.58.18.88.28s.59.23.88.37a3.19,3.19,0,0,1,.77.53,2.72,2.72,0,0,1,.54.78,2.75,2.75,0,0,1,.21,1.13,3.56,3.56,0,0,1-.25,1.35,3.38,3.38,0,0,1-.72,1.1,3.47,3.47,0,0,1-1.17.73,4.36,4.36,0,0,1-1.58.27,4.85,4.85,0,0,1-1-.1,6.23,6.23,0,0,1-1-.28,5.46,5.46,0,0,1-.87-.44,3.7,3.7,0,0,1-.71-.57l.64-1a.55.55,0,0,1,.21-.19.57.57,0,0,1,.28-.08.72.72,0,0,1,.41.15l.5.32a5.09,5.09,0,0,0,.66.32,2.43,2.43,0,0,0,.9.14,1.75,1.75,0,0,0,1.18-.35,1.27,1.27,0,0,0,.42-1,1,1,0,0,0-.21-.64,1.45,1.45,0,0,0-.54-.42,4.46,4.46,0,0,0-.76-.29c-.29-.08-.58-.16-.88-.26a6.72,6.72,0,0,1-.88-.35,2.75,2.75,0,0,1-.77-.54,2.59,2.59,0,0,1-.54-.83,3.16,3.16,0,0,1-.21-1.23,3,3,0,0,1,.92-2.12,3.27,3.27,0,0,1,1.11-.69,4,4,0,0,1,1.51-.26,5,5,0,0,1,1.76.29,4,4,0,0,1,1.37.82Z" fill="#fff"/><polygon points="108.75 25.5 7 25.5 12.24 4.5 114 4.5 108.75 25.5" fill="none" stroke="#fff" stroke-miterlimit="10" stroke-width="0.85"/></svg>