<svg xmlns="http://www.w3.org/2000/svg" viewBox="0 0 40 40" version="1.1">
    <g id="surface1">
        <path style=" fill:#98CCFD;"
              d="M 12.132813 37.5 C 10.683594 37.5 9.5 36.316406 9.5 34.867188 L 9.5 5.132813 C 9.5 3.683594 10.683594 2.5 12.132813 2.5 L 27.867188 2.5 C 29.316406 2.5 30.5 3.683594 30.5 5.132813 L 30.5 34.867188 C 30.5 36.316406 29.316406 37.5 27.867188 37.5 Z "></path>
        <path style=" fill:#4788C7;"
              d="M 27.867188 3 C 29.042969 3 30 3.957031 30 5.132813 L 30 34.867188 C 30 36.042969 29.042969 37 27.867188 37 L 12.132813 37 C 10.957031 37 10 36.042969 10 34.867188 L 10 5.132813 C 10 3.957031 10.957031 3 12.132813 3 L 27.867188 3 M 27.867188 2 L 12.132813 2 C 10.402344 2 9 3.402344 9 5.132813 L 9 34.867188 C 9 36.597656 10.402344 38 12.132813 38 L 27.867188 38 C 29.597656 38 31 36.597656 31 34.867188 L 31 5.132813 C 31 3.402344 29.597656 2 27.867188 2 Z "></path>
        <path style=" fill:#DFF0FE;" d="M 9.5 6.5 L 30.5 6.5 L 30.5 33.5 L 9.5 33.5 Z "></path>
        <path style=" fill:#4788C7;" d="M 30 7 L 30 33 L 10 33 L 10 7 L 30 7 M 31 6 L 9 6 L 9 34 L 31 34 Z "></path>
        <path style=" fill:#4788C7;"
              d="M 20.5 4.5 C 20.5 4.777344 20.277344 5 20 5 C 19.722656 5 19.5 4.777344 19.5 4.5 C 19.5 4.222656 19.722656 4 20 4 C 20.277344 4 20.5 4.222656 20.5 4.5 Z "></path>
        <path style="fill:none;stroke-width:1;stroke-linecap:round;stroke-linejoin:miter;stroke:#4788C7;stroke-opacity:1;stroke-miterlimit:10;"
              d="M 18.5 35.5 L 21.5 35.5 "></path>
        <path style="fill:none;stroke-width:1;stroke-linecap:butt;stroke-linejoin:miter;stroke:#4788C7;stroke-opacity:1;stroke-miterlimit:10;"
              d="M 27.5 20 C 27.5 24.140625 24.140625 27.5 20 27.5 C 15.859375 27.5 12.5 24.140625 12.5 20 C 12.5 15.859375 15.859375 12.5 20 12.5 C 24.140625 12.5 27.5 15.859375 27.5 20 Z "></path>
        <path style="fill:none;stroke-width:1;stroke-linecap:butt;stroke-linejoin:miter;stroke:#4788C7;stroke-opacity:1;stroke-miterlimit:10;"
              d="M 24.5 20 C 24.5 22.484375 22.484375 24.5 20 24.5 C 17.515625 24.5 15.5 22.484375 15.5 20 C 15.5 17.515625 17.515625 15.5 20 15.5 C 22.484375 15.5 24.5 17.515625 24.5 20 Z "></path>
        <path style=" fill:#B6DCFE;"
              d="M 21.5 20 C 21.5 20.828125 20.828125 21.5 20 21.5 C 19.171875 21.5 18.5 20.828125 18.5 20 C 18.5 19.171875 19.171875 18.5 20 18.5 C 20.828125 18.5 21.5 19.171875 21.5 20 Z "></path>
        <path style=" fill:#4788C7;"
              d="M 20 19 C 20.550781 19 21 19.449219 21 20 C 21 20.550781 20.550781 21 20 21 C 19.449219 21 19 20.550781 19 20 C 19 19.449219 19.449219 19 20 19 M 20 18 C 18.894531 18 18 18.894531 18 20 C 18 21.105469 18.894531 22 20 22 C 21.105469 22 22 21.105469 22 20 C 22 18.894531 21.105469 18 20 18 Z "></path>
    </g>
</svg>