<svg xmlns="http://www.w3.org/2000/svg" xmlns:xlink="http://www.w3.org/1999/xlink" viewBox="0 0 40 40" version="1.1">
<g id="surface1">
<path style=" fill:#B6DCFE;" d="M 1.511719 36.5 C 1.78125 30.941406 6.492188 26.5 12.25 26.5 L 19.75 26.5 C 25.507813 26.5 30.21875 30.941406 30.488281 36.5 Z "></path>
<path style=" fill:#4788C7;" d="M 19.75 27 C 25.054688 27 29.433594 30.953125 29.949219 36 L 2.050781 36 C 2.566406 30.953125 6.945313 27 12.25 27 L 19.75 27 M 19.75 26 L 12.25 26 C 6.035156 26 1 30.925781 1 37 L 31 37 C 31 30.925781 25.964844 26 19.75 26 Z "></path>
<path style=" fill:#FFFFFF;" d="M 16 29.5 C 12.925781 29.5 11.703125 26.875 11.5 26.378906 L 11.5 20.910156 L 20.5 20.910156 L 20.5 26.378906 C 20.296875 26.875 19.074219 29.5 16 29.5 Z "></path>
<path style=" fill:#4788C7;" d="M 20 21.410156 L 20 26.273438 C 19.738281 26.863281 18.605469 29 16 29 C 13.390625 29 12.257813 26.859375 12 26.273438 L 12 21.410156 L 20 21.410156 M 21 20.410156 L 11 20.410156 L 11 26.472656 C 11 26.472656 12.265625 30 16 30 C 19.734375 30 21 26.472656 21 26.472656 Z "></path>
<path style=" fill:#FFFFFF;" d="M 16 25.5 C 15.394531 25.5 14.828125 25.28125 14.359375 24.867188 L 14.269531 24.789063 L 14.152344 24.761719 C 10.824219 23.914063 8.5 20.929688 8.5 17.5 L 8.5 8.199219 C 8.5 6.375 9.984375 4.886719 11.8125 4.886719 L 20.1875 4.886719 C 22.015625 4.886719 23.5 6.375 23.5 8.199219 L 23.5 17.5 C 23.5 20.929688 21.175781 23.914063 17.847656 24.761719 L 17.730469 24.789063 L 17.640625 24.867188 C 17.171875 25.28125 16.605469 25.5 16 25.5 Z "></path>
<path style=" fill:#4788C7;" d="M 20.1875 5.390625 C 21.738281 5.390625 23 6.652344 23 8.203125 L 23 17.5 C 23 20.699219 20.832031 23.488281 17.726563 24.277344 L 17.492188 24.335938 L 17.3125 24.492188 C 17.046875 24.726563 16.609375 25 16 25 C 15.390625 25 14.953125 24.726563 14.6875 24.492188 L 14.507813 24.335938 L 14.273438 24.277344 C 11.167969 23.488281 9 20.699219 9 17.5 L 9 8.203125 C 9 6.652344 10.261719 5.390625 11.8125 5.390625 L 20.1875 5.390625 M 20.1875 4.390625 L 11.8125 4.390625 C 9.707031 4.390625 8 6.097656 8 8.203125 L 8 17.5 C 8 21.238281 10.566406 24.367188 14.027344 25.246094 C 14.558594 25.710938 15.242188 26 16 26 C 16.757813 26 17.441406 25.710938 17.972656 25.246094 C 21.433594 24.367188 24 21.238281 24 17.5 L 24 8.203125 C 24 6.097656 22.292969 4.390625 20.1875 4.390625 Z "></path>
<path style=" fill:#B6DCFE;" d="M 24 25.5 C 22.234375 25.5 20.589844 24.589844 19.730469 24.015625 C 20.773438 23.359375 22.5 21.792969 22.5 18.644531 L 22.5 13.917969 C 22.5 11.507813 20.414063 9.695313 20.324219 9.621094 L 19.894531 9.253906 L 19.582031 9.726563 C 19.5625 9.757813 17.445313 12.882813 12.929688 13.503906 C 10.574219 13.828125 9.5 15.613281 9.5 17.132813 L 9.5 18.644531 C 9.5 21.835938 11.207031 23.378906 12.257813 24.023438 C 11.398438 24.597656 9.765625 25.5 8 25.5 C 6.214844 25.5 4.621094 24.566406 3.839844 24.015625 C 4.722656 23.320313 6.285156 21.777344 6.285156 19.570313 C 6.285156 18.644531 6.109375 17.664063 5.921875 16.625 C 5.714844 15.464844 5.5 14.261719 5.5 13 C 5.5 4.511719 10.886719 1.5 15.5 1.5 C 19.300781 1.5 20.53125 4.175781 20.542969 4.203125 L 20.675781 4.5 L 21 4.5 C 24.496094 4.5 26.5 7.234375 26.5 12 C 26.5 13.34375 26.230469 14.835938 25.972656 16.28125 C 25.730469 17.632813 25.5 18.910156 25.5 20 C 25.5 21.84375 26.960938 22.851563 28.140625 23.28125 C 27.433594 24.09375 25.929688 25.5 24 25.5 Z "></path>
<path style=" fill:#4788C7;" d="M 15.5 2 C 18.925781 2 20.042969 4.316406 20.085938 4.40625 L 20.347656 5 L 21 5 C 24.222656 5 26 7.484375 26 12 C 26 13.296875 25.734375 14.769531 25.480469 16.191406 C 25.234375 17.570313 25 18.867188 25 20 C 25 21.765625 26.140625 22.855469 27.289063 23.449219 C 26.546875 24.164063 25.378906 25 24 25 C 22.726563 25 21.503906 24.476563 20.644531 23.988281 C 21.730469 23.105469 23 21.472656 23 18.644531 L 23 13.917969 C 23 11.28125 20.746094 9.324219 20.648438 9.242188 L 19.792969 8.511719 L 19.164063 9.449219 C 19.085938 9.570313 17.136719 12.421875 12.863281 13.011719 C 10.210938 13.375 9 15.402344 9 17.132813 L 9 18.640625 C 9 21.503906 10.253906 23.132813 11.34375 24.003906 C 10.492188 24.484375 9.28125 25 8 25 C 6.6875 25 5.476563 24.445313 4.667969 23.960938 C 5.609375 23.078125 6.785156 21.578125 6.785156 19.570313 C 6.785156 18.597656 6.605469 17.597656 6.414063 16.535156 C 6.210938 15.394531 6 14.21875 6 13 C 6 4.882813 11.117188 2 15.5 2 M 15.5 1 C 10.210938 1 5 4.695313 5 13 C 5 15.453125 5.785156 17.683594 5.785156 19.570313 C 5.785156 22.328125 3 24 3 24 C 3 24 5.253906 26 8 26 C 10.792969 26 13.210938 23.945313 13.210938 23.945313 C 13.210938 23.945313 10 22.917969 10 18.644531 C 10 18.03125 10 18.082031 10 17.132813 C 10 15.78125 10.941406 14.285156 13 14 C 17.816406 13.335938 20 10 20 10 C 20 10 22 11.710938 22 13.917969 C 22 14.964844 22 16.929688 22 18.644531 C 22 22.835938 18.785156 23.945313 18.785156 23.945313 C 18.785156 23.945313 21.226563 26 24 26 C 27.003906 26 29 23 29 23 C 29 23 26 22.464844 26 20 C 26 17.808594 27 14.648438 27 12 C 27 6.238281 24.234375 4 21 4 C 21 4 19.671875 1 15.5 1 Z "></path>
<path style=" fill:#98CCFD;" d="M 31 39.5 C 26.3125 39.5 22.5 35.6875 22.5 31 C 22.5 26.3125 26.3125 22.5 31 22.5 C 35.6875 22.5 39.5 26.3125 39.5 31 C 39.5 35.6875 35.6875 39.5 31 39.5 Z "></path>
<path style=" fill:#4788C7;" d="M 31 23 C 35.410156 23 39 26.589844 39 31 C 39 35.410156 35.410156 39 31 39 C 26.589844 39 23 35.410156 23 31 C 23 26.589844 26.589844 23 31 23 M 31 22 C 26.027344 22 22 26.027344 22 31 C 22 35.972656 26.027344 40 31 40 C 35.972656 40 40 35.972656 40 31 C 40 26.027344 35.972656 22 31 22 Z "></path>
<path style="fill:none;stroke-width:2;stroke-linecap:butt;stroke-linejoin:miter;stroke:#FFFFFF;stroke-opacity:1;stroke-miterlimit:10;" d="M 26.820313 31.023438 L 29.589844 33.792969 L 35.820313 27.5625 "></path>
</g>
</svg>