<svg xmlns="http://www.w3.org/2000/svg" xmlns:xlink="http://www.w3.org/1999/xlink" viewBox="0 0 40 40" version="1.1">
<g id="surface1">
<path style=" fill:#B6DCFE;" d="M 20 5.222656 L 1.5 11.390625 L 1.5 7.695313 L 20 1.527344 L 38.5 7.695313 L 38.5 11.390625 Z "></path>
<path style=" fill:#4788C7;" d="M 20 2.054688 L 38 8.054688 L 38 10.695313 L 20 4.695313 L 2 10.695313 L 2 8.054688 L 20 2.054688 M 20 1 L 1 7.332031 L 1 12.082031 L 20 5.75 L 39 12.082031 L 39 7.332031 Z "></path>
<path style=" fill:#B6DCFE;" d="M 20 39.5 C 18.949219 39.5 18.007813 38.828125 17.652344 37.832031 L 17.535156 37.5 L 5 37.5 C 4.171875 37.5 3.5 36.828125 3.5 36 L 3.5 30.5 L 36.5 30.5 L 36.5 36 C 36.5 36.828125 35.828125 37.5 35 37.5 L 22.464844 37.5 L 22.347656 37.832031 C 21.992188 38.828125 21.050781 39.5 20 39.5 Z "></path>
<path style=" fill:#4788C7;" d="M 36 31 L 36 36 C 36 36.550781 35.550781 37 35 37 L 22.109375 37 L 21.875 37.664063 C 21.589844 38.464844 20.835938 39 20 39 C 19.164063 39 18.410156 38.464844 18.125 37.664063 L 17.890625 37 L 5 37 C 4.449219 37 4 36.550781 4 36 L 4 31 L 36 31 M 37 30 L 3 30 L 3 36 C 3 37.105469 3.894531 38 5 38 L 17.183594 38 C 17.597656 39.164063 18.695313 40 20 40 C 21.304688 40 22.402344 39.164063 22.816406 38 L 35 38 C 36.105469 38 37 37.105469 37 36 Z "></path>
<path style=" fill:#FFFFFF;" d="M 20 35.5 C 19.542969 34.894531 18.816406 34.5 18 34.5 L 3.5 34.5 L 3.5 13.5 L 16 13.5 C 17.929688 13.5 19.5 15.070313 19.5 17 L 20.5 17 C 20.5 15.070313 22.070313 13.5 24 13.5 L 36.5 13.5 L 36.5 34.5 L 22 34.5 C 21.183594 34.5 20.457031 34.894531 20 35.5 Z "></path>
<path style=" fill:#4788C7;" d="M 36 14 L 36 34 L 22 34 C 21.230469 34 20.53125 34.289063 20 34.765625 C 19.46875 34.289063 18.769531 34 18 34 L 4 34 L 4 14 L 16 14 C 17.652344 14 19 15.347656 19 17 L 21 17 C 21 15.347656 22.347656 14 24 14 L 36 14 M 37 13 L 24 13 C 21.789063 13 20 14.789063 20 17 C 20 14.789063 18.210938 13 16 13 L 3 13 L 3 35 L 18 35 C 19.105469 35 20 35.894531 20 37 C 20 35.894531 20.894531 35 22 35 L 37 35 Z "></path>
<path style=" fill:#DFF0FE;" d="M 24 14 C 22.347656 14 21 15.347656 21 17 L 20 17 L 20 34.765625 C 20.53125 34.289063 21.230469 34 22 34 L 36 34 L 36 14 Z "></path>
<path style=" fill:#4788C7;" d="M 19 17 L 21 17 C 21 17.550781 20.550781 18 20 18 C 19.449219 18 19 17.550781 19 17 Z "></path>
<path style=" fill:#B6DCFE;" d="M 4 35 L 18 35 L 18 36 L 4 36 Z "></path>
</g>
</svg>