<svg xmlns="http://www.w3.org/2000/svg" xmlns:xlink="http://www.w3.org/1999/xlink" viewBox="0 0 40 40" version="1.1">
<g id="surface1">
<path style=" fill:#B6DCFE;" d="M 6.363281 37.5 C 5.886719 37.5 5.5 37.105469 5.5 36.613281 L 5.5 3.386719 C 5.5 2.894531 5.886719 2.5 6.363281 2.5 L 16.539063 2.5 C 16.511719 2.667969 16.5 2.835938 16.5 3 C 16.5 4.929688 18.070313 6.5 20 6.5 C 21.929688 6.5 23.5 4.929688 23.5 3 C 23.5 2.835938 23.488281 2.667969 23.460938 2.5 L 33.636719 2.5 C 34.113281 2.5 34.5 2.894531 34.5 3.386719 L 34.5 36.613281 C 34.5 37.101563 34.113281 37.5 33.636719 37.5 Z "></path>
<path style=" fill:#4788C7;" d="M 33.636719 3 C 33.835938 3 34 3.171875 34 3.386719 L 34 36.617188 C 34 36.828125 33.835938 37 33.636719 37 L 6.363281 37 C 6.164063 37 6 36.828125 6 36.613281 L 6 3.386719 C 6 3.171875 6.164063 3 6.363281 3 L 16 3 C 16 5.207031 17.792969 7 20 7 C 22.207031 7 24 5.207031 24 3 L 33.636719 3 M 33.636719 2 L 22.816406 2 C 22.929688 2.3125 23 2.648438 23 3 C 23 4.65625 21.65625 6 20 6 C 18.34375 6 17 4.65625 17 3 C 17 2.648438 17.070313 2.3125 17.183594 2 L 6.363281 2 C 5.609375 2 5 2.621094 5 3.386719 L 5 36.617188 C 5 37.378906 5.609375 38 6.363281 38 L 33.636719 38 C 34.390625 38 35 37.378906 35 36.613281 L 35 3.386719 C 35 2.621094 34.390625 2 33.636719 2 Z "></path>
<path style=" fill:#FFFFFF;" d="M 8 5 L 32 5 L 32 35 L 8 35 Z "></path>
<path style=" fill:#4788C7;" d="M 20 1 C 21.101563 1 22 1.898438 22 3 C 22 4.101563 21.101563 5 20 5 C 18.898438 5 18 4.101563 18 3 C 18 1.898438 18.898438 1 20 1 M 20 0 C 18.34375 0 17 1.34375 17 3 C 17 4.65625 18.34375 6 20 6 C 21.65625 6 23 4.65625 23 3 C 23 1.34375 21.65625 0 20 0 Z "></path>
<path style=" fill:#98CCFD;" d="M 15 7.5 C 14.171875 7.5 13.5 6.828125 13.5 6 L 13.5 2.5 L 17.535156 2.5 L 17.574219 2.394531 C 17.523438 2.589844 17.5 2.789063 17.5 3 C 17.5 4.378906 18.621094 5.5 20 5.5 C 21.378906 5.5 22.5 4.378906 22.5 3 C 22.5 2.789063 22.476563 2.589844 22.425781 2.394531 L 22.464844 2.5 L 26.5 2.5 L 26.5 6 C 26.5 6.828125 25.828125 7.5 25 7.5 Z M 19.996094 0.5 C 19.996094 0.5 20.003906 0.5 20.003906 0.5 C 20.003906 0.5 19.996094 0.5 19.996094 0.5 Z "></path>
<path style=" fill:#4788C7;" d="M 26 3 L 26 6 C 26 6.550781 25.550781 7 25 7 L 15 7 C 14.449219 7 14 6.550781 14 6 L 14 3 L 17 3 C 17 4.652344 18.347656 6 20 6 C 21.652344 6 23 4.652344 23 3 L 26 3 M 20 0 C 18.695313 0 17.597656 0.835938 17.183594 2 L 13 2 L 13 6 C 13 7.105469 13.894531 8 15 8 L 25 8 C 26.105469 8 27 7.105469 27 6 L 27 2 L 22.816406 2 C 22.402344 0.835938 21.304688 0 20 0 Z M 20 5 C 18.898438 5 18 4.101563 18 3 C 18 1.898438 18.898438 1 20 1 C 21.101563 1 22 1.898438 22 3 C 22 4.101563 21.101563 5 20 5 Z "></path>
<path style="fill:none;stroke-width:1;stroke-linecap:round;stroke-linejoin:miter;stroke:#4788C7;stroke-opacity:1;stroke-miterlimit:10;" d="M 22.5 16.5 L 24.375 18.375 L 28.5 14.5 "></path>
<path style="fill:none;stroke-width:1;stroke-linecap:round;stroke-linejoin:miter;stroke:#4788C7;stroke-opacity:1;stroke-miterlimit:10;" d="M 22.5 25.5 L 24.375 27.375 L 28.5 23.5 "></path>
<path style=" fill:#98CCFD;" d="M 19.5 17 L 12.5 17 C 12.226563 17 12 16.773438 12 16.5 C 12 16.226563 12.226563 16 12.5 16 L 19.5 16 C 19.773438 16 20 16.226563 20 16.5 C 20 16.773438 19.773438 17 19.5 17 Z "></path>
<path style=" fill:#4788C7;" d="M 19.5 16 L 12.5 16 C 12.226563 16 12 16.226563 12 16.5 C 12 16.773438 12.226563 17 12.5 17 L 19.5 17 C 19.773438 17 20 16.773438 20 16.5 C 20 16.226563 19.773438 16 19.5 16 Z "></path>
<path style=" fill:#98CCFD;" d="M 19.5 26 L 12.5 26 C 12.226563 26 12 25.773438 12 25.5 C 12 25.226563 12.226563 25 12.5 25 L 19.5 25 C 19.773438 25 20 25.226563 20 25.5 C 20 25.773438 19.773438 26 19.5 26 Z "></path>
<path style=" fill:#4788C7;" d="M 19.5 25 L 12.5 25 C 12.226563 25 12 25.226563 12 25.5 C 12 25.773438 12.226563 26 12.5 26 L 19.5 26 C 19.773438 26 20 25.773438 20 25.5 C 20 25.226563 19.773438 25 19.5 25 Z "></path>
</g>
</svg>